<?xml version="1.0" encoding="UTF-8" standalone="no"?>
<svg
   xmlns:dc="http://purl.org/dc/elements/1.1/"
   xmlns:cc="http://creativecommons.org/ns#"
   xmlns:rdf="http://www.w3.org/1999/02/22-rdf-syntax-ns#"
   xmlns:svg="http://www.w3.org/2000/svg"
   xmlns="http://www.w3.org/2000/svg"
   xmlns:sodipodi="http://sodipodi.sourceforge.net/DTD/sodipodi-0.dtd"
   xmlns:inkscape="http://www.inkscape.org/namespaces/inkscape"
   id="uuid-e5935f53-1227-4530-bf3a-e3eeeabdeb70"
   data-name="Ship in Six"
   width="752.73047"
   height="351.36856"
   viewBox="0 0 752.73047 351.36856"
   version="1.1"
   sodipodi:docname="loupe-ship-in-six-horiz-black-rgb.svg"
   inkscape:version="0.92.4 (5da689c313, 2019-01-14)">
  <metadata
     id="metadata29">
    <rdf:RDF>
      <cc:Work
         rdf:about="">
        <dc:format>image/svg+xml</dc:format>
        <dc:type
           rdf:resource="http://purl.org/dc/dcmitype/StillImage" />
        <dc:title></dc:title>
      </cc:Work>
    </rdf:RDF>
  </metadata>
  <defs
     id="defs27" />
  <sodipodi:namedview
     pagecolor="#ffffff"
     bordercolor="#666666"
     borderopacity="1"
     objecttolerance="10"
     gridtolerance="10"
     guidetolerance="10"
     inkscape:pageopacity="0"
     inkscape:pageshadow="2"
     inkscape:window-width="2560"
     inkscape:window-height="1387"
     id="namedview25"
     showgrid="false"
     fit-margin-top="0"
     fit-margin-left="0"
     fit-margin-right="0"
     fit-margin-bottom="0"
     inkscape:zoom="0.6180637"
     inkscape:cx="145.04585"
     inkscape:cy="322.95076"
     inkscape:window-x="-8"
     inkscape:window-y="-8"
     inkscape:window-maximized="1"
     inkscape:current-layer="uuid-e5935f53-1227-4530-bf3a-e3eeeabdeb70" />
  <path
     d="m 364.21802,344.9669 c -7.5094,0 -13.2379,-0.8482 -18.6083,0.1771 -11.094,2.1179 -22.0695,-0.0605 -33.0876,0.1086 -12.2609,0.1881 -24.5373,-1.1703 -36.8161,-1.4326 -9.3189,-0.1991 -18.6515,0.3701 -27.9787,0.4035 -9.7777,0.0351 -19.561,-0.0129 -29.3318,-0.331 -3.7578,-0.1223 -7.5119,-1.6891 -11.2255,-1.541 -6.7564,0.2695 -29.6652,0.4781 -33.2376,0.352 -5.8105,-0.2052 -9.4263,-3.9515 -13.1196,-7.5535 -10.9113,-10.642 -21.6979,-21.4116 -32.5928,-32.0705 -6.0729,-5.9414 -12.4996,-11.5389 -18.3382,-17.6973 -6.3525,-6.7005 -12.041798,-14.0255 -18.317798,-20.8031 -10.7366,-11.5946 -21.6591,-23.0187 -32.5922,-34.4295 -7.2156,-7.5309 -14.793,-14.7242 -21.8317,-22.4133 -7.5825,-8.2832 -14.5774,-17.1026 -22.1302,-25.4143 -3.1722,-3.491 -6.8167002,-6.7584 -10.7923002,-9.2613 -4.63469996,-2.9179 -5.46,-11.6132 -2.4246,-15.1188 1.706,-1.9702 4.7925,-3.124 7.4691,-3.7758 2.9531002,-0.7192 6.1631002,-0.3105 9.2346002,-0.6408 2.5612,-0.2754 5.1356,-0.724 7.6144,-1.4167 8.8288,-2.4671 17.8731,-4.4007 26.9666,-3.7302 9.846,0.7259 19.0028,-2.6122 28.4689,-4.0997 6.1248,-0.9625 12.1902,-2.3189 18.3269,-3.1799 2.062198,-0.2893 4.261498,0.414 6.400498,0.6416 0.4357,0.0464 0.9124,0.095 1.3187,-0.0276 7.6058,-2.2953 15.5467,-1.1294 23.2676,-2.2742 7.76,-1.1506 15.5458,-2.1267 23.3203,-3.1798 11.4396,-1.5496 22.886,-3.0507 34.3151,-4.674 4.4765,-0.6358 8.9168,-1.5309 13.368,-2.3382 1.8148,-0.3291 3.6611,-1.1983 5.4126,-1.0221 4.5045,0.4529 6.5716,-1.3536 8.617,-4.5983 6.3136,-10.0152 12.4594,-20.1516 19.1884,-29.883001 3.427,-4.956 8.306,-8.8908 11.9177,-13.7416 5.3379,-7.1692 10.0736,-14.7832 15.1729,-22.1336 5.2626,-7.5858 10.533,-15.172 16.036,-22.583 2.979,-4.0119 9.5514,-3.7442 12.3692,0.5734 2.8704,4.3982 5.0907,9.2154 7.7093,13.784 3.5238,6.1481 7.1111,12.261 10.7548,18.3389 3.8406,6.4065 7.7182,12.7925 11.69,19.1182 5.9342,9.4514 11.8908,18.891401 18.0535,28.193601 0.7283,1.0993 3.4004,7.4387 3.8993,7.5557 9.1225,2.1389 51.5174,3.6413 62.5623,5.6116 11.1754,1.9935 22.5027,3.1803 33.7906,4.4859 9.543,1.1038 19.144,1.7128 28.6817,2.8547 4.9459,0.5921 9.7837,2.0452 14.7202,2.7704 3.6923,0.5424 7.462,0.5934 11.2018,0.7629 1.846,0.0837 3.8624,-0.5536 5.5261,-0.0146 7.2381,2.3447 14.7024,0.1203 21.9879,1.4191 7.0009,1.2481 14.0838,2.0299 21.1112,3.1392 3.3237,0.5247 7.1425,7.5425 5.329,9.8745 -1.3667,1.7575 -3.2744,3.1043 -4.9849,4.5836 -8.2094,7.1001 -17.1274,13.3758 -24.2462,21.7349 -6.2655,7.3571 -12.8146,14.4788 -19.3904,21.5635 -3.8881,4.189 -8.2211,7.9669 -12.0882,12.1737 -6.5288,7.1024 -12.7583,14.4793 -19.2771,21.5911 -7.0388,7.6791 -14.3677,15.0933 -21.375,22.8003 -5.0268,5.5288 -9.6541,11.4186 -14.6018,17.0219 -6.4069,7.2559 -12.9578,14.3847 -19.4389,21.5753 -0.6786,0.7528 -1.2781,1.577 -1.9589,2.3277 -4.9402,5.4475 -9.8435,10.9294 -14.8511,16.3144 -7.6016,8.1747 -15.2781,16.2798 -22.9228,24.4145 -1.0578,6.2021 -6.2608,4.5968 -8.242,5.1142 z M 22.870522,171.224 l -0.4557,0.8677 c 0.4415,0.6642 0.8041,1.4008 1.3368,1.9815 5.2362,5.7082 10.5495,11.3465 15.7431,17.0929 5.0269,5.5618 9.891,11.2706 14.9206,16.8299 2.7191,3.0054 5.5643,5.9059 8.4776,8.7246 4.8252,4.6685 9.8843,9.1011 14.6068,13.8687 9.3461,9.4354 18.6182,18.9479 27.751198,28.589 6.784,7.1615 13.1808,14.6894 19.9685,21.8472 7.3524,7.7534 14.9599,15.2652 22.4524,22.886 2.4626,2.5048 4.8953,5.0391 7.3738,7.5279 4.0671,4.0841 7.926,8.4177 12.3056,12.1369 4.8021,4.0779 5.013,3.8241 8.9407,-0.9622 0.6462,-0.7874 1.3257,-1.5478 1.9982,-2.3133 6.8342,-7.7788 13.5868,-15.6311 20.5287,-23.3126 7.0611,-7.8134 14.2868,-15.479 21.482,-23.1705 6.373,-6.8125 13.0456,-13.3616 19.1494,-20.4048 8.536,-9.8498 16.6965,-20.026 24.9541,-30.1146 2.8309,-3.4586 5.4707,-7.0736 8.4799,-10.9837 -1.4094,-0.2647 -2.285,-0.5018 -3.1749,-0.5842 -4.6565,-0.4311 -9.3775,-0.4825 -13.9622,-1.3026 -8.3198,-1.4883 -16.51,-3.724 -24.8453,-5.0955 -8.9975,-1.4804 -18.0999,-2.3228 -27.1551,-3.4549 -2.286,-0.2858 -4.6133,-0.4224 -6.8407,-0.9614 -5.9729,-1.4452 -11.8359,-3.4239 -17.8623,-4.5507 -11.9614,-2.2364 -24.0217,-3.9386 -36.0069,-6.055 -13.0653,-2.3072 -26.0905,-4.8404 -39.1355,-7.2626 -11.063698,-2.0543 -22.111598,-4.2034 -33.204598,-6.0864 -5.2608,-0.893 -10.6056,-1.3107 -15.9213,-1.8568 -5.73,-0.5887 -11.4843,-0.9598 -17.2021,-1.6426 -4.9199,-0.5876 -9.8032,-1.4803 -14.7027,-2.2381 z M 512.97452,160.0372 c 0,0 -11.6552,2.3484 -17.553,3.8086 -5.7011,1.4114 -11.3463,3.0707 -16.9637,4.7914 -4.7719,1.4617 -9.3831,3.5358 -14.2227,4.665 -5.4254,1.2658 -11.0518,1.6443 -16.5436,2.663 -3.0555,0.5668 -6.006,1.6842 -9.0193,2.4955 -6.1555,1.6574 -12.3275,3.2533 -18.4812,4.917 -5.3035,1.4338 -10.5692,3.0123 -15.8908,4.3733 -8.335,2.1317 -16.7036,4.132 -25.0571,6.1915 -7.4558,1.8382 -14.8883,3.7776 -22.3725,5.4917 -6.1824,1.416 -12.4691,2.389 -18.6281,3.8919 -5.2571,1.2828 -10.3717,3.1378 -15.5982,4.5607 -5.6492,1.5381 -11.3739,2.7979 -17.0301,4.3118 -4.531,1.2127 -5.3501,2.8172 -3.3179,6.8288 3.7106,7.3246 7.3212,14.7252 11.5215,21.7675 2.7243,4.5676 6.8122,8.3166 9.5922,12.8585 4.5262,7.3948 8.2897,15.253 12.7353,22.7008 4.0723,6.8225 9.0195,13.1419 12.8434,20.0886 3.5033,6.3641 5.8721,13.3416 9.0255,19.9124 2.0407,4.2521 4.5934,8.2587 7.1948,12.8682 1.556,-1.7277 2.5815,-2.8843 3.6261,-4.0234 7.3086,-7.9699 14.6034,-15.9525 21.9389,-23.8975 4.3073,-4.6653 8.6872,-9.2636 13.0214,-13.9042 1.0713,-1.1471 2.0707,-2.3614 3.1395,-3.5109 5.7138,-6.145 11.5073,-12.2175 17.1388,-18.4367 4.4975,-4.9671 8.7072,-10.1949 13.2162,-15.1511 6.1861,-6.7996 13.4267,-12.48 19.0837,-19.9463 6.7145,-8.8619 14.6873,-16.7926 22.3303,-24.9244 7.5846,-8.0696 15.4422,-15.8827 23.1668,-23.8212 1.2149,-1.2486 2.3802,-2.5473 3.5326,-3.8544 1.8125,-2.056 3.5819,-4.1498 5.3946,-6.2056 0.9009,-1.0216 2.6504,-2.9995 2.6504,-2.9995 l 7.198,-6.9824 c 1.2114,-1.1751 0.1278,-3.2025 -1.5223,-2.8484 l -6.1496,1.3199 z m -325.764,169.4051 c 0.6342,0.3215 0.8034,0.488 0.9503,0.4702 7.6977,-0.9323 15.1872,-0.2548 22.8086,1.4657 5.8795,1.3272 12.1375,1.2405 18.2317,1.2949 8.8739,0.0793 17.7511,-0.3643 26.628,-0.4279 9.2528,-0.0663 18.5113,-0.1118 27.7593,0.1349 11.1881,0.2985 22.3672,0.9269 33.5514,1.3822 2.9617,0.1206 5.928,0.1781 8.8922,0.1802 8.0356,0.006 16.074,0.077 24.1049,-0.1274 2.2165,-0.0564 3.9346,-1.2918 2.6602,-4.0596 -0.8119,-1.7633 -1.5267,-3.5785 -2.4445,-5.2848 -3.1544,-5.8641 -6.2884,-11.7425 -9.6001,-17.5182 -4.09,-7.133 -8.1986,-14.2638 -12.5795,-21.2191 -4.2321,-6.7193 -9.2713,-12.9611 -13.1534,-19.8635 -6.8827,-12.2375 -13.077,-24.8599 -19.7474,-37.2199 -1.5637,-2.8975 -3.7039,-5.5438 -5.8937,-8.0284 -2.5381,-2.88 -4.1409,-2.7578 -6.5391,0.1345 -3.8858,4.6863 -7.6505,9.4732 -11.5494,14.1484 -1.8227,2.1856 -3.9935,4.0897 -5.7387,6.3298 -4.9767,6.3878 -9.5637,13.0952 -14.7787,19.2768 -5.4747,6.4894 -11.4628,12.5497 -17.295,18.7331 -4.875,5.1685 -9.8037,10.2884 -14.7934,15.3463 -3.9372,3.991 -8.2334,7.6504 -11.9531,11.828 -4.4942,5.0475 -8.4957,10.5299 -12.8159,15.7367 -2.0482,2.4685 -4.3413,4.7339 -6.7046,7.287 z m 6.4223,-141.6604 c 0.9036,0.1293 6.5839,1.4291 9.4262,1.7232 15.3811,1.5914 30.4976,4.6295 45.4843,8.3843 2.3342,0.5848 4.1908,-0.2609 4.7104,-2.8182 0.5704,-2.8068 1.0428,-5.6391 1.4192,-8.4787 0.9956,-7.5109 1.7619,-15.0551 2.8986,-22.5438 2.4352,-16.0424 5.1449,-32.0434 7.5503,-48.0901 1.5703,-10.4754 2.7954,-21.002301 4.1911,-31.504001 0.7142,-5.3744 1.4975,-10.74 2.1665,-16.1198 0.1246,-1.0024 -0.1457,-2.0539 -0.3016,-3.8741 -28.9536,40.366601 -55.6364,79.116301 -77.5451,123.321201 z m 169.6217,-1.9836 c -5.69,-10.1337 -11.1463,-19.7523 -16.4955,-29.4301 -1.9527,-3.5329 -3.4044,-7.3581 -5.5154,-10.7848 -4.6502,-7.5484 -9.5149,-14.9675 -14.4047,-22.365 -4.3628,-6.6003 -9.2982,-12.8592 -13.2252,-19.702 -5.8218,-10.144301 -10.8725,-20.727701 -16.4781,-31.000701 -1.6823,-3.0831 -4.1198,-5.7547 -6.2113,-8.6148 -0.0646,7.5696 0.4123,14.7968 1.0001,22.0149 0.2696,3.31 0.7169,6.6076 1.1539,9.9015 1.0839,8.171901 2.4073,16.318101 3.2486,24.514101 0.5925,5.7712 0.2878,11.633 0.8483,17.4093 1.2227,12.6021 2.5086,25.2075 4.2368,37.7472 0.8792,6.3793 2.4026,12.7343 4.3249,18.8849 1.5049,4.8149 -0.2471,5.751 5.9727,4.2282 6.2198,-1.5228 9.4518,-2.4116 16.7593,-4.3247 7.3075,-1.9131 22.8767,-6.1075 34.7855,-8.4781 z m -154.0728,-42.0791 c 1.087,-1.7357 -0.3685,-3.9441 -2.3928,-3.6335 -1.966,0.3016 -3.9305,0.7032 -5.8288,0.8817 -4.7556,0.4471 -9.4128,1.8561 -14.1612,2.4832 -8.5567,1.1301 -17.1444,2.0366 -25.7295,2.9379 -10.1981,1.0705 -20.4115,1.9951 -30.61,3.0621 -7.789,0.8149 -15.5623,1.7789 -23.3487,2.6208 -2.4761,0.2677 -5.0447,0.0359 -7.444998,0.5837 -8.6993,1.9853 -17.2143,4.1335 -26.3707,4.2399 -8.7564,0.1017 -17.4858,2.5953 -26.2232,4.0603 -0.3994,0.067 -0.7612,0.3579 -2.0645,0.9993 1.7989,0.5149 2.729,0.9067 3.6942,1.0355 4.1221,0.5503 8.2826,0.8594 12.3774,1.5588 8.0189,1.3697 15.9779,3.0972 24.0073,4.3954 14.7647,2.3871 29.572698,4.5056 44.341498,6.8679 6.8401,1.0941 13.6202,2.5575 20.4461,3.7471 10.1749,1.7733 20.3576,3.5087 30.5636,5.088 1.0707,0.1657 2.7686,-0.4939 3.4026,-1.3454 1.8048,-2.4236 3.0449,-5.2622 4.8036,-7.7261 4.1009,-5.7454 15.2403,-23.3965 20.5381,-31.8564 z m 284.3858,9.8248 -0.0417,-0.8638 c -8.7291,-1.5535 -17.4138,-3.4482 -26.1967,-4.5875 -16.7425,-2.1718 -33.5267,-4.0526 -50.3231,-5.7647 -6.8906,-0.7024 -13.8825,-0.3825 -20.7847,-1.0082 -12.2032,-1.1062 -24.3595,-2.7303 -36.5637,-3.823 -4.5626,-0.4085 -9.2041,0.0623 -13.952,0.1344 0.1371,1.2192 0.0889,1.5288 0.2083,1.7466 5.5553,10.1286 11.1196,20.2522 16.6959,30.3693 2.3198,4.2088 4.563,8.4669 7.0877,12.5502 0.5483,0.8869 2.301,1.7699 3.2488,1.5546 8.5467,-1.9416 17.0605,-4.041 25.5383,-6.2677 8.5415,-2.2434 16.9964,-4.8201 25.5537,-6.9982 7.3251,-1.8644 14.7283,-3.4318 22.1216,-5.0158 5.2988,-1.1353 10.7349,-1.7361 15.9377,-3.1902 8.4232,-2.3542 16.6864,-5.275 25.0602,-7.8149 2.051,-0.6221 4.2687,-0.6954 6.4097,-1.0211 z m -211.8933,-89.258901 -0.9309,0.0279 c -0.2015,0.9607 -0.4172,1.9186 -0.6021,2.8824 -1.4802,7.7177 -2.9608,15.4353 -4.4288,23.1553 -1.2086,6.3557 -2.6825,12.677101 -3.5376,19.080501 -1.5262,11.4299 -2.6309,22.9155 -3.9958,34.3678 -0.8841,7.4175 -1.4367,14.9204 -3.0007,22.1998 -2.147,9.9924 -4.6507,19.8462 -4.2653,30.2098 0.1136,3.0568 0.7712,4.2558 3.9854,4.3669 4.1298,0.1427 8.4192,0.3359 12.3133,1.5519 6.1265,1.9131 12.0319,1.6728 17.9598,-0.1343 0.9345,-0.2849 2.0433,-2.0505 2.0001,-3.0868 -0.1109,-2.6559 -0.9203,-5.2737 -1.2812,-7.9297 -1.4048,-10.3399 -2.9906,-20.6637 -4.0496,-31.0403 -1.5919,-15.5986 -2.7645,-31.2396 -4.1774,-46.857 -1.207,-13.341501 -2.4193,-26.683801 -3.8204,-40.005601 -0.3126,-2.9727 -1.4247,-5.8613 -2.1686,-8.7887 z"
     id="path2"
     inkscape:connector-curvature="0" />
  <g
     id="g22"
     transform="translate(-163.63458,-364.3158)">
    <path
       d="m 670.3053,370.9196 c -0.1651,-2.3974 1.4176,-4.5443 3.8141,-4.7215 3.6644,-0.271 7.1196,-0.5205 10.5785,-0.6948 1.9927,-0.1004 3.2123,0.9094 3.2049,3.1543 -0.0272,8.2191 -0.0588,16.4396 0.0751,24.657 0.0395,2.4252 0.5024,4.8684 1.0452,7.2407 0.1174,0.5133 1.4144,1.079 2.1653,1.0753 6.9986,-0.0348 13.9968,-0.1772 20.9946,-0.3151 2.0861,-0.0411 4.1831,-0.3433 6.2521,-0.1983 1.7035,0.1194 2.2964,-0.244 2.1577,-2.0347 -0.79,-10.1997 -1.9736,-19.2113 -0.5662,-29.299 0.4665,-3.343 2.6073,-4.5206 6.0108,-3.7759 2.2955,0.5023 5.4008,-0.1667 7.7794,0 0.9307,0.0652 4.2079,0 4.207,2.4229 -0.1986,1.5906 -0.6554,3.17 -0.6756,4.7583 -0.116,9.0459 -0.1856,18.0932 -0.1724,27.1398 0.0131,8.9662 0.2039,17.9322 0.2028,26.8983 -10e-4,7.7791 -0.1638,15.5582 -0.2502,23.3374 -0.0303,2.7307 -1.2491,3.4684 -4.0205,3.2094 -2.7171,-0.2539 -5.5416,0.2604 -8.2788,0.6919 -3.8915,0.6134 -4.8118,0.0618 -4.7569,-3.9209 0.1379,-9.9874 0.405,-19.9731 0.6369,-29.9591 0.0993,-4.2804 -0.1594,-4.4255 -4.3196,-4.3579 -8.6975,0.1414 -17.3991,0.0605 -26.0943,0.2675 -0.9399,0.0224 -2.8811,-0.0318 -2.8963,3.1375 -0.0152,3.1693 -0.1198,20.5118 -0.0518,31.8147 0.0112,1.8615 -0.3657,2.7899 -2.3406,2.6337 -4.5096,-0.3567 -9.0331,-0.5934 -13.5184,-1.1434 -0.7423,-0.091 -1.8923,-1.5287 -1.8807,-2.33 0.072,-4.9743 0.597,-7.8476 0.6389,-12.8211 0.0656,-7.7967 -0.3244,-15.5997 -0.1533,-23.392 0.1173,-5.3415 1.2524,-10.6707 1.2348,-16.003 -0.0301,-9.149 -0.5561,-18.2986 -1.0206,-27.4405 l -0.002,-0.0312 z"
       id="path4"
       inkscape:connector-curvature="0" />
    <path
       d="m 723.8138,715.0283 c -13.2325,1.6309 -25.426,-5.147 -37.9945,-10.3974 -3.5061,-1.4647 -3.4007,-2.9473 -0.7997,-5.7245 1.7005,-1.8156 2.9167,-4.0959 4.2796,-6.2132 2.2657,-3.5197 2.7708,-3.3311 6.5412,-1.7342 6.734,2.8522 13.5585,5.6604 20.5964,7.5543 3.4849,0.9378 7.6631,0.3417 11.2811,-0.5547 3.4148,-0.8461 3.8213,-4.4721 4.3482,-7.5709 0.4567,-2.686 0.3344,-5.2748 -2.3145,-6.6946 -2.7046,-1.4496 -5.6085,-2.5388 -8.4586,-3.7039 -7.2867,-2.9789 -15.4337,-5.1857 -22.8214,-7.8929 -5.0964,-1.8676 -8.5541,-5.5069 -11.4378,-9.6847 -6.3077,-9.1381 -3.2589,-25.0202 6.0148,-31.33 9.1127,-6.2003 17.9642,-7.4115 23.6044,-7.4115 5.6402,0 11.5695,1.4971 17.1945,2.886 2.5223,0.6228 4.5921,2.9842 6.9334,4.4511 3.8707,2.4251 3.6866,5.5215 1.7743,9.0817 -0.5929,1.1037 -1.1169,2.3919 -1.1624,3.6146 -0.1462,3.9262 -2.2437,2.9542 -4.3206,1.8105 -1.5049,-0.8287 -2.7515,-2.2573 -4.3267,-2.7991 -3.0242,-1.0402 -5.6982,-2.9896 -10.5963,-3.4218 -4.4059,-0.3888 -9.6317,0.4933 -13.3978,1.1525 -4.328,0.7576 -10.0008,5.6822 -10.1966,9.8404 -0.1671,3.55 4.6298,7.9554 8.9222,8.7337 5.4237,0.9836 10.818,2.2052 16.1436,3.6281 4.1144,1.0992 17.1125,6.8251 20.1378,12.2286 5.3552,9.2546 4.9939,24.1452 -1.9398,32.2009 -4.209,4.8902 -9.7049,8.5549 -18.0047,7.951 z"
       id="path6"
       inkscape:connector-curvature="0" />
    <path
       d="m 888.6102,521.0925 c -0.6902,-7.845 -1.3462,-15.6991 -1.7036,-23.5635 -0.1066,-2.3457 1.3966,-3.7833 4.2178,-3.9365 3.5915,-0.195 6.968,0.9876 10.5246,0.342 2.4059,-0.4367 4.4041,0.5514 4.519,3.5541 0.219,5.7286 0.5779,8.7302 0.6401,14.4603 0.094,8.6644 0.2584,17.3434 -0.1316,25.9925 -0.2846,6.3089 -1.2457,36.1131 -1.025,39.1276 0.2207,3.0145 -1.6026,4.1228 -4.4449,3.926 -3.406,-0.2358 -5.8425,-1.576 -8.2096,-4.4247 -5.6647,-6.8173 -20.0612,-25.0683 -24.0487,-29.9092 -4.7427,-5.7577 -11.2014,-12.3457 -13.6937,-15.8692 -0.6395,-1.014 -1.5961,-1.8283 -2.4088,-2.7333 -0.3295,0.0853 -0.0394,8.8313 -0.1111,13.1175 -0.1586,9.4954 -0.4314,18.9893 -0.537,28.4851 -0.0299,2.6878 0.32,5.3834 0.5639,8.0693 0.202,2.2244 -0.4828,3.5114 -2.9785,3.353 -3.5175,-0.2232 -7.9653,-0.2118 -11.4627,-0.5972 -2.1045,-0.2319 -2.7347,-1.6437 -2.6736,-3.925 0.2766,-10.329 0.585,-20.6735 0.3062,-30.9968 -0.3673,-13.5982 0.3474,-28.0932 -0.139,-41.6899 -0.0912,-2.5494 -0.9448,-4.2884 -0.1286,-6.7652 0.321,-0.9739 1.7181,-2.2652 2.621,-2.262 4.4239,0.0157 6.7272,-0.9831 10.7871,0.3707 2.6939,0.8982 4.7639,4.186 6.8891,6.6396 5.0867,5.8728 8.9626,10.3719 13.83,16.4231 2.7694,3.443 8.2962,9.621 11.0069,13.1178 2.6432,3.4098 5.6952,6.503 8.5678,9.7351 0.4245,-0.1542 -0.202,-13.5055 -0.7771,-20.0414 z"
       id="path8"
       inkscape:connector-curvature="0" />
    <path
       d="m 873.0059,678.3068 c -2.8972,4.5528 -5.4688,8.4866 -7.9317,12.4872 -4.6028,7.4767 -9.0822,15.0303 -13.7774,22.4479 -0.6569,1.0379 -2.2835,2.1593 -3.3932,2.0937 -4.7843,-0.2827 -9.5698,-0.8323 -14.3006,-1.6132 -2.5006,-0.4127 -3.6581,-1.9466 -1.8345,-4.484 3.3363,-4.6418 6.8727,-9.1655 9.8667,-14.0212 4.2392,-6.875 8.0691,-12.1856 12.0604,-19.2128 1.9658,-3.4611 4.0084,-4.1614 5.7703,-7.7244 0.404,-0.8171 0.1703,-2.42 -0.4067,-3.175 -3.9639,-5.1867 -8.2445,-14.6769 -12.1289,-19.9197 -3.1053,-4.1912 -5.805,-8.6835 -8.6631,-13.0562 -1.0282,-1.5731 -2.0325,-3.1651 -2.9661,-4.7951 -0.334,-0.5832 -0.7378,-1.4287 -0.5379,-1.9237 0.1741,-0.431 1.1705,-0.7856 1.7743,-0.7446 3.0794,0.209 4.5547,0.0291 7.632,0.278 1.2579,0.1018 3.9669,0.2374 5.1862,0 5.5713,0.1386 5.2004,-0.094 7.9234,5.2734 1.6754,3.3025 4.7445,7.1466 6.7049,10.2857 1.9143,3.0653 5.8251,10.1838 8.1335,13.4725 1.2468,-1.7127 10.3919,-17.6014 13.1096,-21.8854 1.552,-2.4466 2.589,-3.9335 4.3065,-6.2516 0.6944,-0.9371 2.2272,-1.8428 3.3288,-1.7867 4.6113,0.2348 7.9988,0.1118 12.6049,0.5004 3.1218,0.2634 3.6224,1.1245 2.0316,3.8178 -4.6855,7.9326 -9.2006,15.9712 -14.0919,23.7746 -2.3808,3.7981 -5.3873,8.1247 -8.2281,11.6193 -2.3512,2.8923 -1.2072,1.6341 1.3447,5.6823 2.5519,4.0482 10.1836,14.0951 12.8805,18.0867 2.697,3.9917 15.4232,22.8029 16.4257,24.5117 1.0346,1.7638 0.6175,2.791 -1.673,3.0294 -4.6522,0.4842 -10.3882,-0.1313 -15.023,0.5114 -2.4558,0.3405 -4.1805,-0.117 -5.5874,-2.6194 -2.2145,-3.9393 -5.1575,-9.584 -7.564,-13.4255 -3.6949,-5.8985 -7.1909,-11.9213 -10.7849,-17.8831 -0.5876,-0.9749 -1.2449,-1.9078 -2.1918,-3.3503 z"
       id="path10"
       inkscape:connector-curvature="0" />
    <path
       d="m 606.114,365.5837 c 10.6051,0.1317 18.6161,3.839 25.9746,9.2771 1.4407,1.0647 2.0721,2.2252 0.6298,4.058 -1.7862,2.2698 -3.0681,4.9281 -4.713,7.3189 -1.8992,2.7605 -4.1454,2.8422 -6.5729,0.5256 -6.721,-6.4142 -14.6497,-8.0673 -23.4103,-5.4337 -2.2962,0.6903 -4.9396,1.8418 -6.3379,3.6296 -7.0696,9.0392 -0.305,15.2687 8.2576,17.2703 7.584,1.7729 15.2405,3.2618 22.7685,5.2423 10.5112,2.7654 15.7388,8.5251 15.7388,22.4991 0,6.3387 -2.7121,12.682 -6.7709,17.2874 -6.2407,7.0813 -13.7138,10.4724 -23.6817,9.2353 -11.033,-1.3694 -21.4461,-4.6621 -31.4378,-9.3135 -4.4314,-2.0629 -4.7867,-4.2058 -1.9815,-8.1416 1.6284,-2.2847 3.5248,-4.3825 5.3511,-6.5214 2.0996,-2.4591 3.8055,-2.2134 6.5049,-0.3565 2.8416,1.9546 6.0147,3.5971 9.2661,4.7438 3.9222,1.3834 8.145,1.8949 12.119,3.1569 5.7897,1.8386 10.7554,1.1677 13.7756,-4.6161 3.0202,-5.7838 1.6546,-9.2468 -2.7007,-11.3511 -5.0828,-2.4558 -10.5713,-4.0988 -15.9398,-5.9304 -4.9755,-1.6974 -10.4911,-2.3678 -14.9438,-4.9253 -8.9466,-5.1386 -13.8103,-12.146 -12.5514,-24.1132 0.8959,-8.5155 4.9497,-14.7309 11.8442,-19.1509 2.5022,-1.6042 5.7132,-2.2725 8.6985,-2.9124 3.7023,-0.7936 7.5061,-1.1143 10.1131,-1.4783 z"
       id="path12"
       inkscape:connector-curvature="0" />
    <path
       d="m 860.2867,423.4401 c -3.2603,-0.6198 -3.7088,0.8637 -3.727,3.6691 -0.0471,7.2482 -0.162,16.8819 -0.673,24.1095 -0.0587,0.8317 -2.2453,2.0337 -3.5325,2.1576 -3.4415,0.3312 -6.9317,0.1237 -10.4002,0.2187 -2.4144,0.0661 -3.3115,-1.335 -3.2709,-3.4032 0.2442,-12.4224 0.3917,-27.2238 0.7359,-39.6438 0.2057,-7.4232 -0.4721,-14.739 -0.3396,-22.1628 0.0531,-2.971 0.7097,-6.0568 0.4197,-9.0292 -0.3867,-3.9634 0.2015,-6.4961 -0.0355,-10.4672 -0.1649,-2.761 1.2698,-4.3516 4.8606,-4.3488 10.6153,0.008 21.2752,-0.6179 31.8271,0.1874 4.9439,0.3773 12.415,-1.0719 17.3626,1.5686 0.8232,0.4393 1.6716,0.8218 2.5415,1.1594 3.0834,1.1967 6.7623,3.6684 9.4845,7.6281 6.6357,9.652 4.754,32.5332 -4.8981,41.2017 -3.975,3.5699 -8.4571,4.6773 -13.2537,5.9065 -6.9946,1.7926 -25.5355,1.5461 -27.1016,1.2484 z m 13.7631,-15.9358 c 6.8076,-0.495 9.8546,0.6364 14.4909,-2.408 2.2695,-1.4902 4.5808,-3.7 4.9696,-5.3469 0.8466,-3.5853 0.7563,-7.4678 0.5568,-11.2025 -0.2058,-3.8546 -5.1245,-9.8022 -8.9839,-10.1943 -7.3773,-0.7495 -12.9656,-0.3612 -23.0499,-0.2752 -2.2539,0.0192 -5.1421,-0.4263 -5.3714,3.8933 -0.37,6.9704 0.2396,15.244 -0.3359,22.1981 -0.1888,2.281 0.6237,3.2638 2.6509,3.4477 4.4217,0.4013 8.2652,0.3827 15.0728,-0.1123 z"
       id="path14"
       inkscape:connector-curvature="0" />
    <path
       d="m 787.2613,677.2117 c -0.1024,-8.15 -1.549,-16.2793 -1.736,-24.4331 -0.1969,-8.5888 0.3434,-17.1982 0.7448,-25.7901 0.0344,-0.737 1.3766,-1.8977 2.2261,-2.0125 1.8594,-0.2514 9.5647,1.0686 11.0408,0.6105 2.5192,-0.7818 3.9907,0.1516 3.684,2.7988 -0.7782,6.7152 0.4484,23.166 0.4032,25.338 -0.139,6.6769 -0.4888,13.3601 -0.3262,20.0303 0.2709,11.1146 0.6735,23.1032 1.2861,34.205 0.1908,3.458 0.3517,5.9597 -2.7338,6.3909 -3.1448,0.4396 -8.2449,-0.2244 -11.4173,0 -2.7127,0.1919 -3.7158,-1.9658 -3.6861,-4.7397 0.0244,-2.2703 -0.1458,-4.5427 -0.2297,-6.8142 -0.1364,-0.01 0.8509,-17.0719 0.7441,-25.5839 z"
       id="path16"
       inkscape:connector-curvature="0" />
    <path
       d="m 802.4289,505.1366 c 0.3041,8.2307 0.0298,36.019 -0.3452,41.6868 -0.2629,3.9743 0.1297,22.9866 0.0377,28.5125 -0.0105,0.6331 -0.1461,1.2703 -0.1024,1.8972 0.3311,4.7492 0.1114,5.1893 -4.7181,5.516 -2.9596,0.2002 -8.7193,0.057 -11.6425,-0.4137 -0.9292,-0.1496 -2.2711,-1.832 -2.3007,-2.8458 -0.3732,-12.7791 1.839,-25.606 0.8943,-38.3359 -0.9054,-12.2021 -0.0736,-24.2644 0.6178,-36.3821 0.1448,-2.5361 -0.202,-5.1333 0.2293,-7.6063 0.2223,-1.2744 0.1478,-3.2308 2.5431,-3.3258 4.0398,0.0351 8.9856,0.095 11.1465,0.095 2.1609,0 3.1057,0.5637 3.1708,1.2966 0.2399,2.7015 0.1086,9.919 0.4695,9.9055 z"
       id="path18"
       inkscape:connector-curvature="0" />
    <path
       d="m 782.032,367.7128 c -0.0422,-1.6453 1.1888,-3.0326 2.834,-2.9842 2.2623,0.0665 4.4132,0.1303 6.564,0.1973 0.4537,0.0141 0.9058,0.084 1.3595,0.0986 1.5498,0.0498 4.1306,-0.4221 4.4507,0.2263 0.8524,1.7262 0.9334,3.9298 0.962,5.9486 0.1166,8.2291 0.2487,16.463 0.0903,24.6896 -0.1809,9.3972 -0.0616,49.6721 0.0727,55.0624 0.0252,1.0117 -2.07,3.0256 -3.0499,2.9436 -3.6452,-0.3048 -7.1533,0.8059 -10.6448,-0.2978 -0.9373,-0.2963 -1.767,-2.3842 -1.8463,-3.6979 -0.4193,-6.9432 -0.6419,-15.9186 -0.6948,-22.8734 -0.0811,-10.6901 0.1328,-21.382 0.1333,-32.0732 4e-4,-9.071 -0.0995,-18.1423 -0.2303,-27.2123 l -6e-4,-0.0276 z"
       id="path20"
       inkscape:connector-curvature="0" />
  </g>
</svg>
